<mxfile host="app.diagrams.net" agent="Mozilla/5.0 (Windows NT 10.0; Win64; x64) AppleWebKit/537.36 (KHTML, like Gecko) Chrome/131.0.0.0 Safari/537.36" version="25.0.3">
  <diagram name="หน้า-1" id="FXROCOF5lQdAgSLINMfM">
    <mxGraphModel dx="1088" dy="469" grid="1" gridSize="10" guides="1" tooltips="1" connect="1" arrows="1" fold="1" page="1" pageScale="1" pageWidth="827" pageHeight="1169" math="0" shadow="0">
      <root>
        <mxCell id="0" />
        <mxCell id="1" parent="0" />
        <mxCell id="jGEQjA7ICfQB35nHyNjK-3" value="" style="edgeStyle=orthogonalEdgeStyle;rounded=0;orthogonalLoop=1;jettySize=auto;html=1;" edge="1" parent="1" source="jGEQjA7ICfQB35nHyNjK-1" target="jGEQjA7ICfQB35nHyNjK-2">
          <mxGeometry relative="1" as="geometry" />
        </mxCell>
        <mxCell id="jGEQjA7ICfQB35nHyNjK-1" value="start" style="ellipse;whiteSpace=wrap;html=1;" vertex="1" parent="1">
          <mxGeometry x="354" y="20" width="120" height="80" as="geometry" />
        </mxCell>
        <mxCell id="jGEQjA7ICfQB35nHyNjK-7" value="" style="edgeStyle=orthogonalEdgeStyle;rounded=0;orthogonalLoop=1;jettySize=auto;html=1;" edge="1" parent="1" source="jGEQjA7ICfQB35nHyNjK-2" target="jGEQjA7ICfQB35nHyNjK-6">
          <mxGeometry relative="1" as="geometry" />
        </mxCell>
        <mxCell id="jGEQjA7ICfQB35nHyNjK-2" value="int number" style="whiteSpace=wrap;html=1;" vertex="1" parent="1">
          <mxGeometry x="354" y="190" width="120" height="60" as="geometry" />
        </mxCell>
        <mxCell id="jGEQjA7ICfQB35nHyNjK-9" value="" style="edgeStyle=orthogonalEdgeStyle;rounded=0;orthogonalLoop=1;jettySize=auto;html=1;" edge="1" parent="1" source="jGEQjA7ICfQB35nHyNjK-6" target="jGEQjA7ICfQB35nHyNjK-8">
          <mxGeometry relative="1" as="geometry" />
        </mxCell>
        <mxCell id="jGEQjA7ICfQB35nHyNjK-6" value="แสดงคำว่า Input N :" style="shape=parallelogram;perimeter=parallelogramPerimeter;whiteSpace=wrap;html=1;fixedSize=1;" vertex="1" parent="1">
          <mxGeometry x="341" y="330" width="146" height="60" as="geometry" />
        </mxCell>
        <mxCell id="jGEQjA7ICfQB35nHyNjK-11" value="" style="edgeStyle=orthogonalEdgeStyle;rounded=0;orthogonalLoop=1;jettySize=auto;html=1;" edge="1" parent="1" source="jGEQjA7ICfQB35nHyNjK-8" target="jGEQjA7ICfQB35nHyNjK-10">
          <mxGeometry relative="1" as="geometry" />
        </mxCell>
        <mxCell id="jGEQjA7ICfQB35nHyNjK-8" value="รับค่าจากผู้ใช้" style="shape=parallelogram;perimeter=parallelogramPerimeter;whiteSpace=wrap;html=1;fixedSize=1;" vertex="1" parent="1">
          <mxGeometry x="354" y="470" width="120" height="60" as="geometry" />
        </mxCell>
        <mxCell id="jGEQjA7ICfQB35nHyNjK-13" value="" style="edgeStyle=orthogonalEdgeStyle;rounded=0;orthogonalLoop=1;jettySize=auto;html=1;" edge="1" parent="1" source="jGEQjA7ICfQB35nHyNjK-10" target="jGEQjA7ICfQB35nHyNjK-12">
          <mxGeometry relative="1" as="geometry" />
        </mxCell>
        <mxCell id="jGEQjA7ICfQB35nHyNjK-10" value="int arr[ number ]" style="whiteSpace=wrap;html=1;" vertex="1" parent="1">
          <mxGeometry x="354" y="610" width="120" height="60" as="geometry" />
        </mxCell>
        <mxCell id="jGEQjA7ICfQB35nHyNjK-46" value="" style="edgeStyle=orthogonalEdgeStyle;rounded=0;orthogonalLoop=1;jettySize=auto;html=1;" edge="1" parent="1" source="jGEQjA7ICfQB35nHyNjK-47" target="jGEQjA7ICfQB35nHyNjK-14">
          <mxGeometry relative="1" as="geometry" />
        </mxCell>
        <mxCell id="jGEQjA7ICfQB35nHyNjK-12" value="int count[ 101 ] = { 0 }" style="whiteSpace=wrap;html=1;" vertex="1" parent="1">
          <mxGeometry x="354" y="750" width="120" height="60" as="geometry" />
        </mxCell>
        <mxCell id="jGEQjA7ICfQB35nHyNjK-17" value="" style="edgeStyle=orthogonalEdgeStyle;rounded=0;orthogonalLoop=1;jettySize=auto;html=1;" edge="1" parent="1" source="jGEQjA7ICfQB35nHyNjK-14" target="jGEQjA7ICfQB35nHyNjK-16">
          <mxGeometry relative="1" as="geometry" />
        </mxCell>
        <mxCell id="jGEQjA7ICfQB35nHyNjK-14" value="int i = 0" style="whiteSpace=wrap;html=1;" vertex="1" parent="1">
          <mxGeometry x="354" y="890" width="120" height="60" as="geometry" />
        </mxCell>
        <mxCell id="jGEQjA7ICfQB35nHyNjK-19" value="" style="edgeStyle=orthogonalEdgeStyle;rounded=0;orthogonalLoop=1;jettySize=auto;html=1;" edge="1" parent="1" source="jGEQjA7ICfQB35nHyNjK-16" target="jGEQjA7ICfQB35nHyNjK-18">
          <mxGeometry relative="1" as="geometry" />
        </mxCell>
        <mxCell id="jGEQjA7ICfQB35nHyNjK-28" value="" style="edgeStyle=orthogonalEdgeStyle;rounded=0;orthogonalLoop=1;jettySize=auto;html=1;" edge="1" parent="1" source="jGEQjA7ICfQB35nHyNjK-16" target="jGEQjA7ICfQB35nHyNjK-27">
          <mxGeometry relative="1" as="geometry" />
        </mxCell>
        <mxCell id="jGEQjA7ICfQB35nHyNjK-16" value="i &amp;lt; number ?" style="rhombus;whiteSpace=wrap;html=1;" vertex="1" parent="1">
          <mxGeometry x="374" y="1020" width="80" height="80" as="geometry" />
        </mxCell>
        <mxCell id="jGEQjA7ICfQB35nHyNjK-24" value="" style="edgeStyle=orthogonalEdgeStyle;rounded=0;orthogonalLoop=1;jettySize=auto;html=1;" edge="1" parent="1" source="jGEQjA7ICfQB35nHyNjK-18" target="jGEQjA7ICfQB35nHyNjK-23">
          <mxGeometry relative="1" as="geometry" />
        </mxCell>
        <mxCell id="jGEQjA7ICfQB35nHyNjK-18" value="แสดงคำว่า&amp;nbsp;Element :" style="shape=parallelogram;perimeter=parallelogramPerimeter;whiteSpace=wrap;html=1;fixedSize=1;" vertex="1" parent="1">
          <mxGeometry x="316" y="1200" width="196" height="60" as="geometry" />
        </mxCell>
        <mxCell id="jGEQjA7ICfQB35nHyNjK-20" value="T" style="text;html=1;align=center;verticalAlign=middle;resizable=0;points=[];autosize=1;strokeColor=none;fillColor=none;" vertex="1" parent="1">
          <mxGeometry x="375" y="1098" width="30" height="30" as="geometry" />
        </mxCell>
        <mxCell id="jGEQjA7ICfQB35nHyNjK-26" value="" style="edgeStyle=orthogonalEdgeStyle;rounded=0;orthogonalLoop=1;jettySize=auto;html=1;" edge="1" parent="1" source="jGEQjA7ICfQB35nHyNjK-23" target="jGEQjA7ICfQB35nHyNjK-25">
          <mxGeometry relative="1" as="geometry" />
        </mxCell>
        <mxCell id="jGEQjA7ICfQB35nHyNjK-23" value="รับค่าจากผู้ใช้" style="shape=parallelogram;perimeter=parallelogramPerimeter;whiteSpace=wrap;html=1;fixedSize=1;" vertex="1" parent="1">
          <mxGeometry x="354" y="1340" width="120" height="60" as="geometry" />
        </mxCell>
        <mxCell id="jGEQjA7ICfQB35nHyNjK-35" value="" style="edgeStyle=orthogonalEdgeStyle;rounded=0;orthogonalLoop=1;jettySize=auto;html=1;" edge="1" parent="1" source="jGEQjA7ICfQB35nHyNjK-25" target="jGEQjA7ICfQB35nHyNjK-34">
          <mxGeometry relative="1" as="geometry" />
        </mxCell>
        <mxCell id="jGEQjA7ICfQB35nHyNjK-41" style="edgeStyle=orthogonalEdgeStyle;rounded=0;orthogonalLoop=1;jettySize=auto;html=1;exitX=0;exitY=0.5;exitDx=0;exitDy=0;entryX=-0.05;entryY=0.25;entryDx=0;entryDy=0;entryPerimeter=0;" edge="1" parent="1" source="jGEQjA7ICfQB35nHyNjK-25" target="jGEQjA7ICfQB35nHyNjK-42">
          <mxGeometry relative="1" as="geometry">
            <mxPoint x="240" y="1830" as="targetPoint" />
            <Array as="points">
              <mxPoint x="250" y="1545" />
              <mxPoint x="250" y="1800" />
            </Array>
          </mxGeometry>
        </mxCell>
        <mxCell id="jGEQjA7ICfQB35nHyNjK-25" value="arr[ i ] &amp;gt;= 0 &amp;amp;&amp;amp; arr[ i ] &amp;lt;= 100&amp;nbsp;" style="rhombus;whiteSpace=wrap;html=1;" vertex="1" parent="1">
          <mxGeometry x="306" y="1490" width="216" height="110" as="geometry" />
        </mxCell>
        <mxCell id="jGEQjA7ICfQB35nHyNjK-30" value="" style="edgeStyle=orthogonalEdgeStyle;rounded=0;orthogonalLoop=1;jettySize=auto;html=1;" edge="1" parent="1" source="jGEQjA7ICfQB35nHyNjK-27" target="jGEQjA7ICfQB35nHyNjK-29">
          <mxGeometry relative="1" as="geometry" />
        </mxCell>
        <mxCell id="jGEQjA7ICfQB35nHyNjK-27" value="count[ arr [ i ] ] ++&amp;nbsp;" style="whiteSpace=wrap;html=1;" vertex="1" parent="1">
          <mxGeometry x="514" y="1030" width="120" height="60" as="geometry" />
        </mxCell>
        <mxCell id="jGEQjA7ICfQB35nHyNjK-51" value="" style="edgeStyle=orthogonalEdgeStyle;rounded=0;orthogonalLoop=1;jettySize=auto;html=1;" edge="1" parent="1" source="jGEQjA7ICfQB35nHyNjK-29" target="jGEQjA7ICfQB35nHyNjK-50">
          <mxGeometry relative="1" as="geometry" />
        </mxCell>
        <mxCell id="jGEQjA7ICfQB35nHyNjK-29" value="Error: Value out of range (0-100)" style="whiteSpace=wrap;html=1;" vertex="1" parent="1">
          <mxGeometry x="714" y="1030" width="216" height="60" as="geometry" />
        </mxCell>
        <mxCell id="jGEQjA7ICfQB35nHyNjK-31" value="F" style="text;html=1;align=center;verticalAlign=middle;resizable=0;points=[];autosize=1;strokeColor=none;fillColor=none;" vertex="1" parent="1">
          <mxGeometry x="455" y="1018" width="30" height="30" as="geometry" />
        </mxCell>
        <mxCell id="jGEQjA7ICfQB35nHyNjK-39" value="" style="edgeStyle=orthogonalEdgeStyle;rounded=0;orthogonalLoop=1;jettySize=auto;html=1;" edge="1" parent="1" source="jGEQjA7ICfQB35nHyNjK-34" target="jGEQjA7ICfQB35nHyNjK-38">
          <mxGeometry relative="1" as="geometry" />
        </mxCell>
        <mxCell id="jGEQjA7ICfQB35nHyNjK-34" value="count[ arr[ i ] ]" style="whiteSpace=wrap;html=1;" vertex="1" parent="1">
          <mxGeometry x="354" y="1705" width="120" height="60" as="geometry" />
        </mxCell>
        <mxCell id="jGEQjA7ICfQB35nHyNjK-49" style="edgeStyle=orthogonalEdgeStyle;rounded=0;orthogonalLoop=1;jettySize=auto;html=1;exitX=0.5;exitY=1;exitDx=0;exitDy=0;" edge="1" parent="1" source="jGEQjA7ICfQB35nHyNjK-38" target="jGEQjA7ICfQB35nHyNjK-47">
          <mxGeometry relative="1" as="geometry">
            <Array as="points">
              <mxPoint x="414" y="1940" />
              <mxPoint x="210" y="1940" />
              <mxPoint x="210" y="850" />
            </Array>
          </mxGeometry>
        </mxCell>
        <mxCell id="jGEQjA7ICfQB35nHyNjK-38" value="i++" style="whiteSpace=wrap;html=1;" vertex="1" parent="1">
          <mxGeometry x="354" y="1845" width="120" height="60" as="geometry" />
        </mxCell>
        <mxCell id="jGEQjA7ICfQB35nHyNjK-40" value="T" style="text;html=1;align=center;verticalAlign=middle;resizable=0;points=[];autosize=1;strokeColor=none;fillColor=none;" vertex="1" parent="1">
          <mxGeometry x="415" y="1608" width="30" height="30" as="geometry" />
        </mxCell>
        <mxCell id="jGEQjA7ICfQB35nHyNjK-42" value="" style="shape=waypoint;sketch=0;fillStyle=solid;size=6;pointerEvents=1;points=[];fillColor=none;resizable=0;rotatable=0;perimeter=centerPerimeter;snapToPoint=1;" vertex="1" parent="1">
          <mxGeometry x="404" y="1790" width="20" height="20" as="geometry" />
        </mxCell>
        <mxCell id="jGEQjA7ICfQB35nHyNjK-43" value="F" style="text;html=1;align=center;verticalAlign=middle;resizable=0;points=[];autosize=1;strokeColor=none;fillColor=none;" vertex="1" parent="1">
          <mxGeometry x="285" y="1498" width="30" height="30" as="geometry" />
        </mxCell>
        <mxCell id="jGEQjA7ICfQB35nHyNjK-48" value="" style="edgeStyle=orthogonalEdgeStyle;rounded=0;orthogonalLoop=1;jettySize=auto;html=1;" edge="1" parent="1" source="jGEQjA7ICfQB35nHyNjK-12" target="jGEQjA7ICfQB35nHyNjK-47">
          <mxGeometry relative="1" as="geometry">
            <mxPoint x="414" y="810" as="sourcePoint" />
            <mxPoint x="414" y="890" as="targetPoint" />
          </mxGeometry>
        </mxCell>
        <mxCell id="jGEQjA7ICfQB35nHyNjK-47" value="" style="shape=waypoint;sketch=0;fillStyle=solid;size=6;pointerEvents=1;points=[];fillColor=none;resizable=0;rotatable=0;perimeter=centerPerimeter;snapToPoint=1;" vertex="1" parent="1">
          <mxGeometry x="403" y="840" width="20" height="20" as="geometry" />
        </mxCell>
        <mxCell id="jGEQjA7ICfQB35nHyNjK-50" value="return 1" style="whiteSpace=wrap;html=1;" vertex="1" parent="1">
          <mxGeometry x="762" y="1170" width="120" height="60" as="geometry" />
        </mxCell>
        <mxCell id="jGEQjA7ICfQB35nHyNjK-54" value="" style="edgeStyle=orthogonalEdgeStyle;rounded=0;orthogonalLoop=1;jettySize=auto;html=1;" edge="1" parent="1" source="jGEQjA7ICfQB35nHyNjK-52" target="jGEQjA7ICfQB35nHyNjK-53">
          <mxGeometry relative="1" as="geometry" />
        </mxCell>
        <mxCell id="jGEQjA7ICfQB35nHyNjK-52" value="แสดงผล" style="shape=parallelogram;perimeter=parallelogramPerimeter;whiteSpace=wrap;html=1;fixedSize=1;" vertex="1" parent="1">
          <mxGeometry x="620" y="1640" width="120" height="60" as="geometry" />
        </mxCell>
        <mxCell id="jGEQjA7ICfQB35nHyNjK-56" value="" style="edgeStyle=orthogonalEdgeStyle;rounded=0;orthogonalLoop=1;jettySize=auto;html=1;" edge="1" parent="1" source="jGEQjA7ICfQB35nHyNjK-53" target="jGEQjA7ICfQB35nHyNjK-55">
          <mxGeometry relative="1" as="geometry" />
        </mxCell>
        <mxCell id="jGEQjA7ICfQB35nHyNjK-53" value="int i = 0" style="whiteSpace=wrap;html=1;" vertex="1" parent="1">
          <mxGeometry x="620" y="1780" width="120" height="60" as="geometry" />
        </mxCell>
        <mxCell id="jGEQjA7ICfQB35nHyNjK-58" value="" style="edgeStyle=orthogonalEdgeStyle;rounded=0;orthogonalLoop=1;jettySize=auto;html=1;" edge="1" parent="1" source="jGEQjA7ICfQB35nHyNjK-55" target="jGEQjA7ICfQB35nHyNjK-57">
          <mxGeometry relative="1" as="geometry" />
        </mxCell>
        <mxCell id="jGEQjA7ICfQB35nHyNjK-65" value="" style="edgeStyle=orthogonalEdgeStyle;rounded=0;orthogonalLoop=1;jettySize=auto;html=1;" edge="1" parent="1" source="jGEQjA7ICfQB35nHyNjK-55" target="jGEQjA7ICfQB35nHyNjK-64">
          <mxGeometry relative="1" as="geometry" />
        </mxCell>
        <mxCell id="jGEQjA7ICfQB35nHyNjK-55" value="i &amp;lt;= 100 ?" style="rhombus;whiteSpace=wrap;html=1;" vertex="1" parent="1">
          <mxGeometry x="640" y="1910" width="80" height="80" as="geometry" />
        </mxCell>
        <mxCell id="jGEQjA7ICfQB35nHyNjK-62" value="" style="edgeStyle=orthogonalEdgeStyle;rounded=0;orthogonalLoop=1;jettySize=auto;html=1;entryX=0.5;entryY=0;entryDx=0;entryDy=0;" edge="1" parent="1" source="jGEQjA7ICfQB35nHyNjK-57" target="jGEQjA7ICfQB35nHyNjK-79">
          <mxGeometry relative="1" as="geometry">
            <mxPoint x="680" y="2220" as="targetPoint" />
          </mxGeometry>
        </mxCell>
        <mxCell id="jGEQjA7ICfQB35nHyNjK-57" value="&lt;div&gt;&amp;nbsp;printf( &quot;%d -&amp;gt; %d value%s.\n&quot;, i, count[ i ], count[ i ] &amp;gt; 1 ? &quot;s&quot; : &quot;&quot; )&amp;nbsp;&lt;/div&gt;" style="shape=parallelogram;perimeter=parallelogramPerimeter;whiteSpace=wrap;html=1;fixedSize=1;" vertex="1" parent="1">
          <mxGeometry x="450" y="2080" width="460" height="60" as="geometry" />
        </mxCell>
        <mxCell id="jGEQjA7ICfQB35nHyNjK-63" value="F" style="text;html=1;align=center;verticalAlign=middle;resizable=0;points=[];autosize=1;strokeColor=none;fillColor=none;" vertex="1" parent="1">
          <mxGeometry x="635" y="1988" width="30" height="30" as="geometry" />
        </mxCell>
        <mxCell id="jGEQjA7ICfQB35nHyNjK-75" style="edgeStyle=orthogonalEdgeStyle;rounded=0;orthogonalLoop=1;jettySize=auto;html=1;exitX=0.5;exitY=1;exitDx=0;exitDy=0;entryX=0.5;entryY=0;entryDx=0;entryDy=0;" edge="1" parent="1" source="jGEQjA7ICfQB35nHyNjK-64" target="jGEQjA7ICfQB35nHyNjK-66">
          <mxGeometry relative="1" as="geometry" />
        </mxCell>
        <mxCell id="jGEQjA7ICfQB35nHyNjK-77" style="edgeStyle=orthogonalEdgeStyle;rounded=0;orthogonalLoop=1;jettySize=auto;html=1;exitX=1;exitY=0.5;exitDx=0;exitDy=0;entryX=0;entryY=0.5;entryDx=0;entryDy=0;" edge="1" parent="1" source="jGEQjA7ICfQB35nHyNjK-64" target="jGEQjA7ICfQB35nHyNjK-68">
          <mxGeometry relative="1" as="geometry" />
        </mxCell>
        <mxCell id="jGEQjA7ICfQB35nHyNjK-64" value="count[ i ] &amp;gt; 0 ?" style="rhombus;whiteSpace=wrap;html=1;" vertex="1" parent="1">
          <mxGeometry x="810" y="1900" width="110" height="100" as="geometry" />
        </mxCell>
        <mxCell id="jGEQjA7ICfQB35nHyNjK-76" style="edgeStyle=orthogonalEdgeStyle;rounded=0;orthogonalLoop=1;jettySize=auto;html=1;exitX=0.5;exitY=1;exitDx=0;exitDy=0;entryX=0.5;entryY=1;entryDx=0;entryDy=0;" edge="1" parent="1" source="jGEQjA7ICfQB35nHyNjK-66" target="jGEQjA7ICfQB35nHyNjK-68">
          <mxGeometry relative="1" as="geometry" />
        </mxCell>
        <mxCell id="jGEQjA7ICfQB35nHyNjK-66" value="แสดงค่า" style="shape=parallelogram;perimeter=parallelogramPerimeter;whiteSpace=wrap;html=1;fixedSize=1;" vertex="1" parent="1">
          <mxGeometry x="960" y="2050" width="120" height="60" as="geometry" />
        </mxCell>
        <mxCell id="jGEQjA7ICfQB35nHyNjK-68" value="i++" style="whiteSpace=wrap;html=1;" vertex="1" parent="1">
          <mxGeometry x="1110" y="1920" width="120" height="60" as="geometry" />
        </mxCell>
        <mxCell id="jGEQjA7ICfQB35nHyNjK-70" value="" style="shape=waypoint;sketch=0;fillStyle=solid;size=6;pointerEvents=1;points=[];fillColor=none;resizable=0;rotatable=0;perimeter=centerPerimeter;snapToPoint=1;" vertex="1" parent="1">
          <mxGeometry x="670" y="1860" width="20" height="20" as="geometry" />
        </mxCell>
        <mxCell id="jGEQjA7ICfQB35nHyNjK-72" value="T" style="text;html=1;align=center;verticalAlign=middle;resizable=0;points=[];autosize=1;strokeColor=none;fillColor=none;" vertex="1" parent="1">
          <mxGeometry x="807" y="2000" width="30" height="30" as="geometry" />
        </mxCell>
        <mxCell id="jGEQjA7ICfQB35nHyNjK-74" value="F" style="text;html=1;align=center;verticalAlign=middle;resizable=0;points=[];autosize=1;strokeColor=none;fillColor=none;" vertex="1" parent="1">
          <mxGeometry x="910" y="1900" width="30" height="30" as="geometry" />
        </mxCell>
        <mxCell id="jGEQjA7ICfQB35nHyNjK-78" style="edgeStyle=orthogonalEdgeStyle;rounded=0;orthogonalLoop=1;jettySize=auto;html=1;exitX=0.5;exitY=0;exitDx=0;exitDy=0;entryX=1.012;entryY=0.655;entryDx=0;entryDy=0;entryPerimeter=0;" edge="1" parent="1" source="jGEQjA7ICfQB35nHyNjK-68" target="jGEQjA7ICfQB35nHyNjK-70">
          <mxGeometry relative="1" as="geometry">
            <Array as="points">
              <mxPoint x="1170" y="1880" />
              <mxPoint x="680" y="1880" />
            </Array>
          </mxGeometry>
        </mxCell>
        <mxCell id="jGEQjA7ICfQB35nHyNjK-79" value="end" style="ellipse;whiteSpace=wrap;html=1;" vertex="1" parent="1">
          <mxGeometry x="350" y="2250" width="120" height="80" as="geometry" />
        </mxCell>
      </root>
    </mxGraphModel>
  </diagram>
</mxfile>
